<?xml version="1.0" encoding="utf-8"?>
<!-- Generator: Adobe Illustrator 23.0.1, SVG Export Plug-In . SVG Version: 6.00 Build 0)  -->
<svg version="1.1" id="Layer_1" xmlns="http://www.w3.org/2000/svg" xmlns:xlink="http://www.w3.org/1999/xlink" x="0px" y="0px"
	 viewBox="0 0 334.76 104.21" style="enable-background:new 0 0 334.76 104.21;" xml:space="preserve">
<style type="text/css">
	.st0{fill:#EE6D62;}
</style>
<g>
	<path class="st0" d="M334.76,84.5c0,13.1-7.8,19.7-20.9,19.7c-7.3,0-12.5-2.1-12.5-2.1l1.4-14.4c0,0,3.1,1.8,7,1.8
		c4.9,0,7.7-2.7,7.7-9.1v-8.1c-1.4,5.1-6.1,8-14.2,8c-11.3,0-16.4-5.7-16.4-14.9c0-3.2,0.6-9.5,0.6-12.1c0-4.1-1.4-5.7-4.1-5.7
		c-1.2,0-1.9,0.3-1.9,0.3V35.1c0,0,3.8-1.6,9.3-1.6c10.5,0,13.9,5.9,13.9,14.6c0,2.6-0.3,7.4-0.3,9.7c0,5.1,1.4,7.8,6.5,7.8
		c4.8,0,6.6-2.3,6.6-6.7V34.5h17.3V84.5z"/>
	<path class="st0" d="M275.1,49.3c0,0-3.9-0.7-6.7-0.7c-6.4,0-7.9,3.5-7.9,8.7v22h-17.3V34.5h17.3V42c2.1-6.3,6.3-8.5,14.6-8.5V49.3
		z"/>
	<path class="st0" d="M236,73.8c0,0-4.7,6.5-13.4,6.5c-14.2,0-23.1-17.1-23.1-42.5c0-22.1,6.7-37.8,22.1-37.8
		C231,0,236,5.8,236,19.1c0,17.2-8.4,30.9-14.8,39c1.8,4,4,6.2,6.6,6.2c2.1,0,3.9-1.5,3.9-1.5L236,73.8z M218.6,49.5
		c0,0,6.3-11.1,6.3-27.1c0-5.4-0.7-7.6-3.1-7.6c-3.6,0-5,4.8-5,15.3C216.8,42.6,218.6,49.5,218.6,49.5z"/>
	<path class="st0" d="M193.8,72.1c0,0-8.5,8.2-24.9,8.2c-15.5,0-26-7.3-26-23.6c0-15.9,10-23.2,27-23.2c13.6,0,23.5,4.7,23.5,14.6
		c0,10-10.1,13-19.5,13c-7.6,0-11.7-1.9-11.7-1.9c0.9,6.1,4.6,7.6,10.6,7.6c11.1,0,18.3-5.2,18.3-5.2L193.8,72.1z M162.1,53.6
		c0,0,1.3,0.4,3.3,0.4c4.3,0,8.1-2,8.1-4.7c0-1.6-1.3-2.8-4.5-2.8C164.9,46.5,162.6,48.5,162.1,53.6z"/>
	<path class="st0" d="M140,34.5l-14.5,44.8h-23.9L87.7,34.5h18.7l8,30.4l7.8-30.4H140z"/>
	<path class="st0" d="M69.7,79.3l-2-5.9c-1.8,4.9-5.7,6.9-13.8,6.9c-10.9,0-17.4-3.6-17.4-13.8c0-11.5,8.1-13.2,18.1-13.2
		c7.6,0,11,1,12.4,3.8v-3.7c0-4.5-4.5-6-11.5-6c-9.4,0-14.9,2.7-14.9,2.7V37.6c0,0,7.3-4,20-4c14.7,0,23.5,5.4,23.5,17.1v28.6H69.7z
		 M67,62.1c0,0-2.2-1-6.3-1c-5.1,0-5.9,1.5-5.9,4.1c0,3.9,1.9,4.9,6.1,4.9c4.9,0,6.1-1.4,6.1-1.4V62.1z"/>
	<path class="st0" d="M31.9,49.3c0,0-3.9-0.7-6.7-0.7c-6.4,0-7.9,3.5-7.9,8.7v22H0V34.5h17.3V42c2.1-6.3,6.3-8.5,14.6-8.5V49.3z"/>
</g>
</svg>
